<svg height="450" viewBox="0 0 497 450" width="497" xmlns="http://www.w3.org/2000/svg"><g fill="none" fill-rule="evenodd"><path d="m248.5 21.508c-126.272 0-229.002 102.729-229.002 229.001h18.925c0-115.835 94.241-210.076 210.077-210.076s210.076 94.241 210.076 210.076h18.926c0-126.272-102.73-229.001-229.002-229.001" fill="#bd4244"/><path d="m248.5 21.508c-126.272 0-229.002 102.729-229.002 229.001h18.925c0-115.835 94.241-210.076 210.077-210.076s210.076 94.241 210.076 210.076h18.926c0-126.272-102.73-229.001-229.002-229.001z" stroke="#bd4244"/><path d="m248.5 39.488c-116.358 0-211.022 94.664-211.022 211.021h18.926c0-105.921 86.174-192.096 192.096-192.096 105.923 0 192.097 86.175 192.097 192.096h18.924c0-116.357-94.664-211.021-211.021-211.021" fill="#e6843a"/><path d="m248.5 39.488c-116.358 0-211.022 94.664-211.022 211.021h18.926c0-105.921 86.174-192.096 192.096-192.096 105.923 0 192.097 86.175 192.097 192.096h18.924c0-116.357-94.664-211.021-211.021-211.021z" stroke="#e6843a"/><path d="m248.5 57.468c-106.444 0-193.042 86.598-193.042 193.041h18.926c0-96.007 78.108-174.116 174.116-174.116s174.116 78.109 174.116 174.116h18.926c0-106.443-86.599-193.041-193.042-193.041" fill="#f0d245"/><path d="m248.5 57.468c-106.444 0-193.042 86.598-193.042 193.041h18.926c0-96.007 78.108-174.116 174.116-174.116s174.116 78.109 174.116 174.116h18.926c0-106.443-86.599-193.041-193.042-193.041z" stroke="#f0d245"/><path d="m248.5 75.448c-96.529 0-175.061 78.532-175.061 175.061h18.925c0-86.093 70.042-156.135 156.136-156.135s156.136 70.042 156.136 156.135h18.926c0-96.529-78.533-175.061-175.062-175.061" fill="#70ba64"/><path d="m248.5 75.448c-96.529 0-175.061 78.532-175.061 175.061h18.925c0-86.093 70.042-156.135 156.136-156.135s156.136 70.042 156.136 156.135h18.926c0-96.529-78.533-175.061-175.062-175.061z" stroke="#70ba64"/><path d="m248.5 93.428c-86.615 0-157.082 70.467-157.082 157.081h18.926c0-76.179 61.976-138.155 138.156-138.155s138.156 61.976 138.156 138.155h18.925c0-86.614-70.466-157.081-157.081-157.081" fill="#77bfc7"/><path d="m248.5 93.428c-86.615 0-157.082 70.467-157.082 157.081h18.926c0-76.179 61.976-138.155 138.156-138.155s138.156 61.976 138.156 138.155h18.925c0-86.614-70.466-157.081-157.081-157.081z" stroke="#77bfc7"/><path d="m248.5 111.407c-76.701 0-139.102 62.401-139.102 139.102h18.925c0-66.265 53.911-120.176 120.177-120.176s120.177 53.911 120.177 120.176h18.926c0-76.701-62.402-139.102-139.103-139.102" fill="#487a95"/><path d="m248.5 111.407c-76.701 0-139.102 62.401-139.102 139.102h18.925c0-66.265 53.911-120.176 120.177-120.176s120.177 53.911 120.177 120.176h18.926c0-76.701-62.402-139.102-139.103-139.102z" stroke="#487a95"/><path d="m248.5 129.386c-32.353 0-62.77 12.6-85.647 35.476-22.877 22.878-35.476 53.294-35.476 85.647h18.925c0-56.441 45.756-102.197 102.198-102.197s102.197 45.756 102.197 102.197h18.926c0-32.353-12.599-62.769-35.477-85.647-22.876-22.876-53.292-35.476-85.646-35.476" fill="#b15a95"/><path d="m248.5 129.386c-32.353 0-62.77 12.6-85.647 35.476-22.877 22.878-35.476 53.294-35.476 85.647h18.925c0-56.441 45.756-102.197 102.198-102.197s102.197 45.756 102.197 102.197h18.926c0-32.353-12.599-62.769-35.477-85.647-22.876-22.876-53.292-35.476-85.646-35.476z" stroke="#b15a95"/><g fill="#1a1919"><path d="m79.986 388.266c12.683 0 22.581-3.373 29.621-9.071h-58.232c7.308 5.979 17.337 9.071 28.611 9.071"/><path d="m116.092 379.195c.536 2.422 1.258 4.629 1.986 6.314h39.815c-1.139-1.649-2.061-3.792-2.77-6.314z"/><path d="m114.635 338.87c0 16.772-9.469 22.286-21.09 22.286-8.824 0-14.204-4.365-14.204-11.487s4.304-10.799 12.697-11.718l12.697-1.378c4.951-.69 7.963-1.838 9.9-4.596zm38.738 25.273v-62.722c0-23.435-16.141-37.221-52.296-37.221-37.231 0-54.233 14.245-56.17 41.815h39.168c1.076-10.109 5.596-12.636 16.571-12.636 11.407 0 13.989 4.136 13.989 9.42 0 6.433-4.304 8.96-13.343 9.879l-17.862 1.609c-32.497 2.986-44.333 15.852-44.333 36.99 0 12.313 4.66 21.685 12.278 27.918h58.232c2.159-1.747 4.058-3.705 5.674-5.862.094 2.001.399 3.994.811 5.862h39.031c-1.166-4.152-1.75-9.335-1.75-15.052z"/><path d="m234.941 221.926h-33.788c-6.025 28.26-21.736 36.301-41.965 37.68l-3.444.229v30.557h36.155v88.803h43.042z"/><path d="m191.899 385.509h43.042v-6.314h-43.042z"/><path d="m327.053 221.926h-33.788c-6.026 28.26-21.737 36.301-41.966 37.68l-3.444.229v30.557h36.156v88.803h43.042z"/><path d="m284.011 385.509h43.042v-6.314h-43.042z"/><path d="m461.131 266.958h-40.46l-1.291 5.054c-6.241 24.813-12.912 51.005-19.153 81.562-6.457-30.327-13.128-56.519-19.8-81.792l-1.291-4.824h-42.397l31.421 95.346c1.924 5.821 3.847 11.641 4.703 16.891h52.204z"/><path d="m372.863 379.195c.293 1.796.462 3.526.462 5.166 0 8.041-3.659 14.015-15.495 14.015h-10.976v32.165c3.228.23 6.457.459 13.989.459 38.522 0 51.65-12.636 62.195-45.491l2.029-6.314z"/></g></g></svg>