<?xml version="1.0" encoding="UTF-8"?>
<svg width="497px" height="450px" viewBox="0 0 497 450" version="1.1" xmlns="http://www.w3.org/2000/svg" xmlns:xlink="http://www.w3.org/1999/xlink">
    <!-- Generator: Sketch 56.3 (81716) - https://sketch.com -->
    <title>a11y-rainbow</title>
    <desc>Created with Sketch.</desc>
    <g id="a11y-rainbow" stroke="none" stroke-width="1" fill="none" fill-rule="evenodd">
        <path d="M248.5,21.508 C122.228,21.508 19.498,124.237 19.498,250.509 L38.423,250.509 C38.423,134.674 132.664,40.433 248.5,40.433 C364.336,40.433 458.576,134.674 458.576,250.509 L477.502,250.509 C477.502,124.237 374.772,21.508 248.5,21.508" id="Fill-6" fill="#BD4244"></path>
        <path d="M248.5,21.508 C122.228,21.508 19.498,124.237 19.498,250.509 L38.423,250.509 C38.423,134.674 132.664,40.433 248.5,40.433 C364.336,40.433 458.576,134.674 458.576,250.509 L477.502,250.509 C477.502,124.237 374.772,21.508 248.5,21.508 Z" id="Stroke-7" stroke="#BD4244"></path>
        <path d="M248.5,39.488 C132.142,39.488 37.478,134.152 37.478,250.509 L56.404,250.509 C56.404,144.588 142.578,58.413 248.5,58.413 C354.423,58.413 440.597,144.588 440.597,250.509 L459.521,250.509 C459.521,134.152 364.857,39.488 248.5,39.488" id="Fill-8" fill="#E6843A"></path>
        <path d="M248.5,39.488 C132.142,39.488 37.478,134.152 37.478,250.509 L56.404,250.509 C56.404,144.588 142.578,58.413 248.5,58.413 C354.423,58.413 440.597,144.588 440.597,250.509 L459.521,250.509 C459.521,134.152 364.857,39.488 248.5,39.488 Z" id="Stroke-9" stroke="#E6843A"></path>
        <path d="M248.5,57.468 C142.056,57.468 55.458,144.066 55.458,250.509 L74.384,250.509 C74.384,154.502 152.492,76.393 248.5,76.393 C344.508,76.393 422.616,154.502 422.616,250.509 L441.542,250.509 C441.542,144.066 354.943,57.468 248.5,57.468" id="Fill-10" fill="#F0D245"></path>
        <path d="M248.5,57.468 C142.056,57.468 55.458,144.066 55.458,250.509 L74.384,250.509 C74.384,154.502 152.492,76.393 248.5,76.393 C344.508,76.393 422.616,154.502 422.616,250.509 L441.542,250.509 C441.542,144.066 354.943,57.468 248.5,57.468 Z" id="Stroke-11" stroke="#F0D245"></path>
        <path d="M248.5,75.448 C151.971,75.448 73.439,153.98 73.439,250.509 L92.364,250.509 C92.364,164.416 162.406,94.374 248.5,94.374 C334.594,94.374 404.636,164.416 404.636,250.509 L423.562,250.509 C423.562,153.98 345.029,75.448 248.5,75.448" id="Fill-12" fill="#70BA64"></path>
        <path d="M248.5,75.448 C151.971,75.448 73.439,153.98 73.439,250.509 L92.364,250.509 C92.364,164.416 162.406,94.374 248.5,94.374 C334.594,94.374 404.636,164.416 404.636,250.509 L423.562,250.509 C423.562,153.98 345.029,75.448 248.5,75.448 Z" id="Stroke-13" stroke="#70BA64"></path>
        <path d="M248.5,93.428 C161.885,93.428 91.418,163.895 91.418,250.509 L110.344,250.509 C110.344,174.33 172.32,112.354 248.5,112.354 C324.68,112.354 386.656,174.33 386.656,250.509 L405.581,250.509 C405.581,163.895 335.115,93.428 248.5,93.428" id="Fill-14" fill="#77BFC7"></path>
        <path d="M248.5,93.428 C161.885,93.428 91.418,163.895 91.418,250.509 L110.344,250.509 C110.344,174.33 172.32,112.354 248.5,112.354 C324.68,112.354 386.656,174.33 386.656,250.509 L405.581,250.509 C405.581,163.895 335.115,93.428 248.5,93.428 Z" id="Stroke-15" stroke="#77BFC7"></path>
        <path d="M248.5,111.407 C171.799,111.407 109.398,173.808 109.398,250.509 L128.323,250.509 C128.323,184.244 182.234,130.333 248.5,130.333 C314.766,130.333 368.677,184.244 368.677,250.509 L387.603,250.509 C387.603,173.808 325.201,111.407 248.5,111.407" id="Fill-16" fill="#487A95"></path>
        <path d="M248.5,111.407 C171.799,111.407 109.398,173.808 109.398,250.509 L128.323,250.509 C128.323,184.244 182.234,130.333 248.5,130.333 C314.766,130.333 368.677,184.244 368.677,250.509 L387.603,250.509 C387.603,173.808 325.201,111.407 248.5,111.407 Z" id="Stroke-17" stroke="#487A95"></path>
        <path d="M248.5,129.386 C216.147,129.386 185.73,141.986 162.853,164.862 C139.976,187.74 127.377,218.156 127.377,250.509 L146.302,250.509 C146.302,194.068 192.058,148.312 248.5,148.312 C304.942,148.312 350.697,194.068 350.697,250.509 L369.623,250.509 C369.623,218.156 357.024,187.74 334.146,164.862 C311.27,141.986 280.854,129.386 248.5,129.386" id="Fill-18" fill="#B15A95"></path>
        <path d="M248.5,129.386 C216.147,129.386 185.73,141.986 162.853,164.862 C139.976,187.74 127.377,218.156 127.377,250.509 L146.302,250.509 C146.302,194.068 192.058,148.312 248.5,148.312 C304.942,148.312 350.697,194.068 350.697,250.509 L369.623,250.509 C369.623,218.156 357.024,187.74 334.146,164.862 C311.27,141.986 280.854,129.386 248.5,129.386 Z" id="Stroke-19" stroke="#B15A95"></path>
        <path d="M79.986,388.266 C92.669,388.266 102.567,384.893 109.607,379.195 L51.375,379.195 C58.683,385.174 68.712,388.266 79.986,388.266" id="Fill-20" fill="#FFFFFF"></path>
        <path d="M116.092,379.195 C116.628,381.617 117.35,383.824 118.078,385.509 L157.893,385.509 C156.754,383.86 155.832,381.717 155.123,379.195 L116.092,379.195" id="Fill-21" fill="#FFFFFF"></path>
        <path d="M114.635,338.87 C114.635,355.642 105.166,361.156 93.545,361.156 C84.721,361.156 79.341,356.791 79.341,349.669 C79.341,342.547 83.645,338.87 92.038,337.951 L104.735,336.573 C109.686,335.883 112.698,334.735 114.635,331.977 L114.635,338.87 Z M153.373,364.143 L153.373,301.421 C153.373,277.986 137.232,264.2 101.077,264.2 C63.846,264.2 46.844,278.445 44.907,306.015 L84.075,306.015 C85.151,295.906 89.671,293.379 100.646,293.379 C112.053,293.379 114.635,297.515 114.635,302.799 C114.635,309.232 110.331,311.759 101.292,312.678 L83.43,314.287 C50.933,317.273 39.097,330.139 39.097,351.277 C39.097,363.59 43.757,372.962 51.375,379.195 L109.607,379.195 C111.766,377.448 113.665,375.49 115.281,373.333 C115.375,375.334 115.68,377.327 116.092,379.195 L155.123,379.195 C153.957,375.043 153.373,369.86 153.373,364.143 L153.373,364.143 Z" id="Fill-22" fill="#FFFFFF"></path>
        <path d="M234.941,221.926 L201.153,221.926 C195.128,250.186 179.417,258.227 159.188,259.606 L155.744,259.835 L155.744,290.392 L191.899,290.392 L191.899,379.195 L234.941,379.195 L234.941,221.926" id="Fill-23" fill="#FFFFFF"></path>
        <polygon id="Fill-24" fill="#FFFFFF" points="191.899 385.509 234.941 385.509 234.941 379.195 191.899 379.195"></polygon>
        <path d="M327.053,221.926 L293.265,221.926 C287.239,250.186 271.528,258.227 251.299,259.606 L247.855,259.835 L247.855,290.392 L284.011,290.392 L284.011,379.195 L327.053,379.195 L327.053,221.926" id="Fill-25" fill="#FFFFFF"></path>
        <polygon id="Fill-26" fill="#FFFFFF" points="284.011 385.509 327.053 385.509 327.053 379.195 284.011 379.195"></polygon>
        <path d="M461.131,266.958 L420.671,266.958 L419.38,272.012 C413.139,296.825 406.468,323.017 400.227,353.574 C393.77,323.247 387.099,297.055 380.427,271.782 L379.136,266.958 L336.739,266.958 L368.16,362.304 C370.084,368.125 372.007,373.945 372.863,379.195 L425.067,379.195 L461.131,266.958" id="Fill-27" fill="#FFFFFF"></path>
        <path d="M372.863,379.195 C373.156,380.991 373.325,382.721 373.325,384.361 C373.325,392.402 369.666,398.376 357.83,398.376 L346.854,398.376 L346.854,430.541 C350.082,430.771 353.311,431 360.843,431 C399.365,431 412.493,418.364 423.038,385.509 L425.067,379.195 L372.863,379.195" id="Fill-28" fill="#FFFFFF"></path>
    </g>
</svg>